<svg version="1.2" xmlns="http://www.w3.org/2000/svg" viewBox="0 0 1497 214" width="1497" height="214">
	<title>ogbench</title>
	<style>
		.s0 { fill: #598be7 } 
		.s1 { fill: #000000 } 
		.s2 { fill: #f9c46b } 
	</style>
	<path class="s0" d="m83.6 213.4q-24.7 0-43.5-12.1-18.9-12-29.5-34.3-10.6-22.2-10.6-53.1 0-30.8 10.6-52.6 10.6-21.8 29.5-33.4 18.8-11.6 43.5-11.6c16.4 0 31.2 3.8 43.8 11.6q18.9 11.6 29.4 33.4 10.6 21.8 10.6 52.6 0 30.9-10.6 53.1-10.5 22.2-29.4 34.3-18.9 12.1-43.8 12.1zm0-29.4c10.1 0 18.7-2.8 25.9-8.5 7.3-5.8 12.9-13.9 17-24.4q6.1-15.9 6.1-37.1c0-14.1-2-26.3-6.1-36.5q-6.1-15.3-17-23.6-10.9-8.2-25.9-8.2c-10.1 0-18.5 2.7-25.9 8.2q-11 8.3-17.1 23.6-6.1 15.2-6.1 36.5c0 14.2 2.1 26.5 6.1 37.1 4.1 10.5 9.8 18.6 17.1 24.4 7.4 5.7 16 8.5 25.9 8.5z"/>
	<path class="s0" d="m284.9 213.4c-17 0-32.3-3.8-45.8-11.4q-20.4-11.3-32-33.2c-7.7-14.6-11.6-32.4-11.6-53.4q0-23.2 6.8-41.5 6.9-18.3 19.2-31.3 12.3-13 28.6-19.6c10.8-4.5 22.5-6.7 35.1-6.7q20.3 0 34.5 7.2 14.2 7.3 22.9 16.9l-18 20.7c-4.6-4.7-9.9-8.4-15.9-11.2q-9-4.2-22.3-4.2-16.9 0-29.6 8.2c-8.5 5.6-15.1 13.4-19.8 23.7q-6.9 15.4-6.9 37 0 21.4 6.7 37.2 6.6 15.7 19.5 24c8.7 5.5 19.2 8.2 31.8 8.2 5.4 0 10.6-0.7 15.4-2.1q7.2-2.2 11.9-6.3v-41h-36v-27.6h66.2v83.7c-6.4 6.4-14.9 11.8-25.4 16.2-10.6 4.4-22.3 6.5-35.3 6.5z"/>
	<path class="s1" d="m392.6 209.9v-191.9h49.9c12.8 0 23.8 1.7 33.1 5.1q13.9 5.1 21.4 15.4 7.6 10.3 7.6 26c0 10.5-2.6 18.9-7.7 26.3q-7.7 11.2-22.5 15.6v1.2q19.1 2.9 30.7 14.7 11.6 11.7 11.6 31.8c0 12.2-2.8 22.5-8.5 30.8-5.7 8.3-13.9 14.6-24.5 18.7q-16 6.3-37.7 6.3zm9.3-106.4h34.8q31.3 0 44.9-10.3c9.2-6.9 13.7-16.3 13.7-28.1q0-21.5-14.5-30.3-14.5-8.7-42.4-8.7h-36.5v77.3zm0 98.3h40.6q30.1 0 47.6-11.3 17.4-11.3 17.4-35.8c0-14.5-5.7-25.3-17-32.4q-17-10.6-48-10.6h-40.6v90.1z"/>
	<path class="s1" d="m609 213.4q-17.4 0-31.7-8.7-14.4-8.7-23-25c-5.7-10.9-8.5-23.8-8.5-39 0-15.1 2.9-28.1 8.5-39.1 5.8-10.9 13.1-19.4 22.3-25.2 9.1-5.9 18.7-8.9 29-8.9 10.2 0 19.8 2.4 27.7 7.4q11.7 7.4 18.1 21.6c4.3 9.5 6.4 21.2 6.4 34.9v4.4q0 2.3-0.6 4.9h-106.8v-8.1h98.7q0-28.8-11.9-42.9c-7.9-9.4-18.5-14.1-31.6-14.1-8.2 0-16.1 2.4-23.8 7.1-7.7 4.8-14.1 11.9-19.2 21.5q-7.5 14.4-7.5 35.9c0 13.2 2.4 24.7 7.1 34.5 4.8 9.7 11.3 17.3 19.6 22.6 8.3 5.4 17.6 8 27.8 8 8 0 15.1-1 21.5-3.2 6.4-2.1 12-4.9 16.9-8.4l4 6.4q-7.8 5.2-17.5 9.3-9.8 4-25.4 4.1z"/>
	<path class="s1" d="m696.6 209.9v-139h7.6l1.1 22.1h0.6c7.3-7.3 14.8-13.5 22.5-18.3q11.5-7.3 25.7-7.3 21.4 0 31.6 13 10.2 12.9 10.2 39.9v89.6h-8.7v-88.4q-0.1-23.3-7.9-34.6-7.8-11.3-25.8-11.4-13.1 0.1-23.8 7c-7.1 4.7-15.2 11.7-24.4 20.9v106.4c0 0-8.7 0-8.7 0.1z"/>
	<path class="s1" d="m899.1 213.4q-17.7 0-31.7-8.6-14.1-8.6-22.2-24.8c-5.4-10.9-8.2-24-8.2-39.3 0-15.3 2.9-28.7 8.7-39.7 5.8-10.9 13.4-19.3 22.8-25 9.4-5.7 19.6-8.5 30.6-8.5q14.5 0 24.1 4.9 9.6 5 16.6 12.5l-5.3 5.3q-6.4-6.7-15.2-10.7-8.8-3.9-20.2-3.9-14.8 0-26.6 8.3c-8 5.5-14.3 13.2-19.1 23-4.7 9.8-7.1 21.1-7.1 33.9q0 19.1 6.6 33.7 6.5 14.5 18.4 22.7c7.9 5.4 17.2 8.1 27.8 8.1q11.9 0 22-4.5c6.7-3 12.3-6.9 16.9-11.8l5.3 5.3q-8.7 8.7-19.6 13.9c-7.3 3.5-15.5 5.3-24.5 5.3z"/>
	<path class="s1" d="m978.6 209.9v-209.9h8.8v93.6q11.3-11.3 22.9-18.7c7.7-5 16.3-7.5 25.8-7.5q21.5 0 31.6 13 10.2 12.9 10.2 39.9v89.6h-8.7v-88.4q0-23.3-7.8-34.6-7.8-11.3-25.8-11.4-13.1 0.1-23.8 7c-7.2 4.7-15.3 11.7-24.4 20.9v106.4h-8.7z"/>
	<path id="-TL" class="s2" aria-label="-TL"  d="m1184.2 152.8h-75v-33.1h75zm104.2 60.2h-47.5v-158h-53.2v-39.2h154.2v39.2h-53.5zm208.4 0h-124v-197.1h47.4v157.4h76.6z"/>
</svg>